<mxfile host="app.diagrams.net" modified="2023-07-14T09:42:12.972Z" agent="Mozilla/5.0 (Windows NT 10.0; Win64; x64) AppleWebKit/537.36 (KHTML, like Gecko) Chrome/114.0.0.0 Safari/537.36 Edg/114.0.1823.79" version="21.6.2" etag="SyGMRnB7UajO5ftoKCX9" type="github">
  <diagram name="第 1 页" id="293d2-s3diwDwEJbJWTw">
    <mxGraphModel>
      <root>
        <mxCell id="0" />
        <mxCell id="1" parent="0" />
      </root>
    </mxGraphModel>
  </diagram>
</mxfile>
